<?xml version="1.0" encoding="UTF-8"?>
<svg id="Layer_1" xmlns="http://www.w3.org/2000/svg" version="1.1" xmlns:xlink="http://www.w3.org/1999/xlink" viewBox="0 0 750 630.4550171">
  <!-- Generator: Adobe Illustrator 29.4.0, SVG Export Plug-In . SVG Version: 2.1.0 Build 152)  -->
  <defs>
    <linearGradient id="linear-gradient" x1="106.4134241" y1="192.3922765" x2="107.5677162" y2="192.3922765" gradientUnits="userSpaceOnUse">
      <stop offset="0" stop-color="#000"/>
      <stop offset="1" stop-color="#ff00a7"/>
    </linearGradient>
    <linearGradient id="linear-gradient1" x1="642.3953078" y1="192.4507429" x2="643.921351" y2="192.4507429" gradientUnits="userSpaceOnUse">
      <stop offset="0" stop-color="#000"/>
      <stop offset="1" stop-color="#018fa7"/>
    </linearGradient>
    <linearGradient id="linear-gradient2" x1="-582.7208573" y1="855.5260006" x2="-582.7208573" y2="854.5260007" gradientTransform="translate(437148.6345725 404805.4519028) scale(749.5417897 -472.9817342)" gradientUnits="userSpaceOnUse">
      <stop offset="0" stop-color="#000"/>
      <stop offset="1" stop-color="#8c0000"/>
    </linearGradient>
  </defs>
  <rect id="svgEditorBackground" x=".2294312" y=".1929427" width="749.5411187" height="630.0692784" fill="none"/>
  <path d="M664.1909241,214.0220398c-6.7158591-16.6717848-20.5294237-20.8642255-21.804644-21.9895436-11.6938296-10.3296745-2.4724853-21.2010249-19.9337801-30.6762268-18.2698208-9.9079357-71.9349642-36.9743653-114.1501167-31.3558035-9.2193619,1.234245-27.8199738,17.5972284-41.1887728,17.5972284h-184.2172363c-13.3688295,0-31.9704327-16.3639746-41.1897793-17.5972284-42.222152-5.6185619-95.8802959,21.4478678-114.1501167,31.3558035-17.46131,9.4752019-8.2379528,20.346537-19.9288012,30.6762268-1.2802145,1.1243117-15.094755,5.3177435-21.8096458,21.9895436C23.1044266,369.9505799-1.5105037,469.0199329.324373,528.9982279c2.8892312,94.358248,76.5311505,101.2639933,76.5311505,101.2639933,37.0103464-8.6117322,111.4817521-129.0559996,168.4318869-129.0559996h259.4351637c56.9501196,0,131.4215557,120.4442674,168.4348453,129.0559996,0,0,73.6328993-6.9057453,76.5161439-101.2639933,1.8629342-59.978295-22.7959805-159.047648-85.4826393-314.9761881Z"/>
  <g>
    <path d="M106.4134241,192.7170746c.5406694-.2888246.9404261-.4867015,1.1542921-.6495962-.3897608.2228555-.7705244.4227301-1.1542921.6495962Z" fill="url(#linear-gradient)"/>
    <path d="M642.3953078,192.0414934c.2138583.1768937.753567.4347314,1.5260433.8184991-.4907274-.2708303-1.0164065-.5416758-1.5260433-.8184991Z" fill="url(#linear-gradient1)"/>
    <path d="M664.1909241,214.0220398c-3.3419481-8.2989201-8.4398403-13.5097345-12.883104-16.78672-3.0221366-2.2356308-5.7314764-3.5608235-7.3875061-4.3753273-.7715003-.3837677-1.3121849-.6416055-1.5260433-.8184991-33.544466-17.9959863-97.3993549-38.1296563-117.4071254-34.2840035-25.9940958,5.0209282-65.4959131,79.6652169-88.9145592,79.6652169h-120.9119682c-23.4206591,0-62.9274782-74.644304-88.9185546-79.6652169-19.5710261-3.7766948-85.5366223,16.4459252-118.676345,34.3099885-.213866.1628947-.6136227.361778-1.1542921.6495962-1.7599241.8484796-5.0639011,2.4165198-8.6926762,5.2647822-4.1914342,3.3059747-8.8066125,8.3468949-11.9037155,16.0411742C23.1044266,369.9505799-1.5105009,469.0199329.3243742,528.9982279c2.8892312,94.358248,76.5311493,101.2639933,76.5311493,101.2639933,37.0103464-8.6117322,111.4817521-129.0559996,168.4318869-129.0559996h259.4351637c56.9501196,0,131.4215557,120.4442674,168.4348453,129.0559996,0,0,73.6328993-6.9057453,76.5161439-101.2639933,1.8628732-59.978295-22.7960415-159.047648-85.4827003-314.9761728l.000061-.0000152Z" fill="url(#linear-gradient2)"/>
  </g>
  <line x1="107.6276771" y1="192.0324962" x2="107.6276771" y2="193.5935369" fill="none"/>
  <line x1="642.3862801" y1="191.5477923" x2="642.3862801" y2="192.497208" fill="none"/>
  <g id="Dpad">
    <g>
      <path d="M277.7305305,462.0242158c-33.4165383,0-60.6028973-27.1803507-60.6028973-60.58992,0-33.4065499,27.186359-60.5858942,60.6028973-60.5858942,33.4075564,0,60.5869006,27.1783683,60.5869006,60.5858942.0000305,33.4095388-27.1793443,60.58992-60.5869006,60.58992Z"/>
      <path d="M277.7305305,341.8487657c32.8558922,0,59.5875125,26.7306443,59.5875125,59.586506,0,32.8578746-26.7306443,59.5905319-59.5875125,59.5905319-32.8648741,0-59.6035092-26.7326268-59.6035092-59.5905319.0010065-32.8568681,26.7386351-59.586506,59.6035092-59.586506M277.7305305,339.8499894c-34.0151708,0-61.6022855,27.5611296-61.6022855,61.5852823,0,34.0291546,27.5871146,61.5893082,61.6022855,61.5893082,34.0161621,0,61.5862888-27.5601231,61.5862888-61.5893082.0000305-34.0251592-27.5700962-61.5852823-61.5862888-61.5852823h0Z" fill="#0d0808"/>
    </g>
    <g display="none">
      <path d="M291.2852508,353.4866603h0c0-4.9829418-27.1094103-4.9829418-27.1094103-.0010065v95.904268h0c0,4.9789464,27.1104167,4.9789464,27.1104167,0-.0000305-23.8373961-.0000305-95.9032616-.0010065-95.9032616h0Z" fill="#141414"/>
      <path d="M229.776902,387.891592h0c-4.9929454,0-4.9929454,27.0964177-.0010065,27.0964177h95.9082786c4.9639715,0,4.9639715-27.0964177,0-27.0964177h-95.9072722Z" fill="#141414"/>
    </g>
    <g display="none">
      <path d="M277.7305305,349.759938c6.7638644,0,13.5546899,1.226239,13.5546899,3.7267223v.0010065h.0010065v34.4039252h34.3979474c4.9639715,0,4.9639715,27.0964177,0,27.0964177h-34.3979474v34.4029492c0,2.4964575-6.7918319,3.7237335-13.5556963,3.7237335-6.7918319,0-13.5546899-1.2272455-13.5546899-3.7237335h0v-34.4029492h-34.3989386c-4.991939,0-4.991939-27.0964177,0-27.0964177h34.3989386v-34.4049316c0-2.5004833,6.762858-3.7267223,13.5546899-3.7267223M277.7305305,346.1581392c-3.8436552,0-7.4544512.361778-10.1737641,1.0353769-5.7884484,1.4081345-6.9807116,4.1894213-6.9807116,6.2931443v30.783156h-30.7981462c-2.1047143,0-4.8969959,1.2202612-6.3051456,6.9847375-.6635952,2.7443221-1.0313663,6.3541116-1.0313663,10.1817548,0,3.832645.3677711,7.4424346,1.0313663,10.1867567,1.4081345,5.7634698,4.2004314,6.9847375,6.3041392,6.9847375h30.7991527v31.6306596l.0929302.235848c.4097528,1.8818435,2.0597436,4.0385127,6.8877815,5.2088167,2.7193435.6715859,6.329133,1.0403482,10.1737641,1.0403482,3.8156572,0,7.4274596-.3687623,10.1687623-1.0403482,5.7644763-1.407128,6.9847375-4.1884453,6.9847375-6.2901554v-30.7851689h32.2952308l.3397883-.3447901c1.673963-.682596,3.4219163-2.4655011,4.4702552-6.6409233.6635952-2.7443221,1.0313815-6.3531052,1.0313815-10.1857502,0-3.8286497-.3677863-7.4374328-1.0313815-10.1817548-1.4371085-5.7644763-4.2184257-6.9847375-6.3041544-6.9847375h-30.8001439v-30.7831865c0-2.104699-1.2212372-4.8860163-6.9847375-6.2941508-2.7412722-.6725924-6.3540506-1.0343704-10.1697383-1.0343704h0Z" fill="red"/>
      <line x1="287.683452" y1="357.0954434" x2="294.8850367" y2="349.8698561" fill="none"/>
      <line x1="267.8376003" y1="356.1270422" x2="260.9827881" y2="349.2902243" fill="none"/>
      <line x1="322.3352418" y1="391.2185651" x2="329.036126" y2="384.5456485" fill="none"/>
      <line x1="322.8379247" y1="412.147738" x2="328.5144422" y2="417.8352656" fill="none"/>
      <line x1="286.7270368" y1="392.4268098" x2="295.8154669" y2="383.3373733" fill="none"/>
      <line x1="286.1843698" y1="409.8791379" x2="296.3881143" y2="420.1008768" fill="none"/>
      <line x1="287.5954932" y1="445.7111743" x2="294.9769909" y2="453.0726953" fill="none"/>
      <line x1="268.5961386" y1="444.9816405" x2="259.7565491" y2="453.8002467" fill="none"/>
      <line x1="269.642495" y1="409.5103451" x2="258.7091861" y2="420.4636613" fill="none"/>
      <line x1="270.3960315" y1="394.1047986" x2="257.9566561" y2="381.6653928" fill="none"/>
      <line x1="233.8494057" y1="410.9324786" x2="225.7033918" y2="419.050525" fill="none"/>
      <line x1="233.4866212" y1="391.5813191" x2="226.0651699" y2="384.1858529" fill="none"/>
    </g>
    <g>
      <g>
        <path d="M277.7305305,452.6139613c-7.1276249,0-12.7342083-1.3221886-13.0410273-3.0761197-.0079907-.0489812-.013999-.1029338-.013999-.1479197v-34.4029492c0-.2758321-.223862-.4996941-.4996941-.4996941h-34.3989386c-1.8188938,0-3.2440162-5.7314764-3.2440162-13.049018s1.4251224-13.049018,3.2440162-13.049018h34.3989386c.2758321,0,.4996941-.223862.4996941-.4996941v-34.4049316c0-.042973.0069842-.0929302.013999-.1419114l.0599608-.2268509c.028974-.04096.0659691-.1069292.0819506-.1329142.4946923-.8084955,2.1037231-1.5160701,4.532229-1.9907856.3048061-.0679516.5936307-.12593.8884636-.1818955.3507984-.0629497.6575869-.111931.9574217-.1349272.0349822-.0029889.1279124-.0159814.1618882-.0259851.2548489-.028974.5786557-.0719469.906458-.1109245.3347865-.0399841.6735988-.0759423,1.0173825-.1089421.363791-.0339758.6925692-.0599608,1.0223843-.082957l2.3675386-.0769487c.3527808-.0079907.7005599-.0119861,1.0463565-.0119861,7.3205305,0,13.0549958,1.4171317,13.0549958,3.2270283.0010065.1728983.0010065,16.0371788.0010065,34.4049316,0,.2758321.223862.4996941.4996941.4996941h34.3979474c1.8078837,0,3.2240394,5.7314764,3.2240394,13.049018s-1.4161252,13.049018-3.2240394,13.049018h-34.3979474c-.2758321,0-.4996941.223862-.4996941.4996941v34.4029492c0,.0449859-.0060083.0989385-.0150055.1519151-.305782,1.7499357-5.9133719,3.0721243-13.0420033,3.0721243Z" fill="#141414"/>
        <path d="M277.7305305,350.7593262c8.0840401,0,12.5553017,1.6120197,12.5553017,2.7273342,0,.0150055,0,.028974.0010065.0439794v34.3609522c0,.5516642.4477239.9993882.9993882.9993882h34.3979474c1.1373042,0,2.7243453,4.7740853,2.7243453,12.5483175,0,7.7752387-1.5870411,12.5493239-2.7243453,12.5493239h-34.3979474c-.5516642,0-.9993882.4477239-.9993882.9993882v34.4019427c0,.0209832-.0039954.0459619-.0060083.0629497-.194888,1.116321-4.6651432,2.6623715-12.5503304,2.6623715-7.8841807,0-12.3534295-1.5460506-12.5483175-2.6543808-.0039954-.0269915-.0079907-.0539526-.0079907-.0699645v-34.4029492c0-.5516642-.4477239-.9993882-.9993882-.9993882h-34.3989386c-1.1452949,0-2.7443221-4.7730788-2.7443221-12.5483175s1.5990272-12.5503304,2.7453133-12.5503304h34.3979474c.5516642,0,.9993882-.4477239.9993882-.9993882v-34.4009363c0-.0209832.0039954-.042973.0039954-.042973h0c0-.0029889.0010065-.0069842.0020129-.0109796l.0010065-.0029889c.0129925-.0349822.028974-.0939366.0399841-.1339207.0119861-.0179944.0239721-.0359887.0359887-.054959.1529215-.249847.9054515-1.1133321,4.1834435-1.7579265.0209832-.0029889.04096-.0069842.0609673-.0119861.2718368-.0619738.5546531-.1189152.8314917-.1708854l.0819506-.013999c.3328041-.0609673.5986325-.097932.794527-.1139439.0479748-.0010065.1129374-.0060083.1878733-.0199768.3088014-.0419665.6116251-.0819506.9184441-.1189152.0079907-.0010065.0159814-.0020129.0239721-.0029889.3278022-.0399841.6625887-.0749663,1.0014011-.1069292h0c.0169879-.0010065.0309869-.0020129.0399841-.0029889.3188051-.0299804.6445944-.0559655.9644059-.0779552l.1169328-.0060083c.1898862-.0079907.3817548-.0129925.5746604-.0169879l.3947473-.0100036c.0679516-.0020129.1349272-.0050018.1689029-.0079907.3248134-.0119861.6506027-.0239721.9784049-.0319934l.1239171-.0010065c.3407643-.0079907.6845479-.0119861,1.0273252-.0119861M277.7305305,349.759938c-.349792,0-.7015663.0039954-1.0513583.0119861-.04096,0-.082957.0010065-.1249235.0020129-.3328041.0079907-.6635952.0199768-.9933799.0329693-.054959.0039954-.1099181.0060083-.1658836.0079907-.3267958.0100036-.6535916.013999-.976392.027998-.0459619.0020129-.0919542.0039954-.1379161.0069842-.3347865.0229962-.6675906.0499572-.9953928.0809441-.013999.0010065-.0269915.0029889-.04096.0029889-.347779.0329693-.6905867.0699645-1.0263797.1099181h-.0020129c-.3307911.0399841-.6556045.082957-.9884086.1279124-.0129925.0039954-.0339758.0060083-.0589544.0069842-.3167921.0239721-.642612.0759423-.9374144.1299253-.0249786.0039954-.0489812.0079907-.0739598.0119861-.3008107.056972-.5956436.1159263-.8794665.180889-.0039954,0-.0079907.0010065-.0129925.0020129-2.425517.4747155-4.2473997,1.214253-4.8620136,2.2206254-.04096.04096-.0759423.0999449-.1059227.1649076-.0029889.0060083-.0060083.0109796-.0089972.0169879-.0169879.0609673-.0299804.1209282-.0449859.1829019-.0069842.0190008-.0119861.0269915-.0169879.04096-.0119861.0449859-.0239721.0929302-.0329693.1419114-.0109796.0749663-.0199768.1499021-.0199768.2158713v34.4049316h-34.3989538c-4.991939,0-4.991939,27.0964177,0,27.0964177h34.3989538v34.4029492h0c0,.0699645.0069842.1519151.0209832.2338656.4077399,2.327585,6.9707385,3.4888614,13.5337066,3.4888614,6.5639746,0,13.1269732-1.1612764,13.5337066-3.4888614.013999-.0819506.0209832-.1649076.0209832-.2338656v-34.4029492h34.3979474c4.9639715,0,4.9639715-27.0964177,0-27.0964177h-34.3979474v-34.4039252h-.0010065v-.0010065c.0039954-2.5014288-6.7878671-3.7276678-13.550725-3.7276678h0Z" fill="#120b0b"/>
      </g>
      <path d="M264.1758406,387.891592l-3.5997859-3.6227821h-30.7981462c-.8624786,0-1.8208914.2258749-2.7822932.8454907l2.7822932,2.7763154c-.0010065.000976,15.4445394.000976,34.3979321.000976Z" fill="#242424"/>
      <path d="M229.776902,387.891592h0l-2.781302-2.7763154c-1.366168.9294237-2.6773617,2.7383138-3.5228372,6.1392468-.6635952,2.7443221-1.0313663,6.3541116-1.0313663,10.1817548,0,3.832645.3677711,7.4424346,1.0313663,10.1867567.8444842,3.3999266,2.1566844,5.2088167,3.5228372,6.1392468l2.781302-2.7722896c-4.9929454-.0019824-4.9929454-27.0984002,0-27.0984002Z" fill="#292929"/>
      <path d="M269.266718,350.5024644c.0039954,0,.0079907-.0010065.0129925-.0020129.2838228-.0639562.5786557-.1239171.8794665-.180889.0249786-.0039954.0489812-.0079907.0739598-.0119861.2948329-.0539526.6196158-.1049467.9374144-.1299253.0249786-.0010065.0459619-.0029889.0589544-.0069842.3328041-.0449859.6575869-.0879588.9884086-.1279124h.0020129c.335793-.04096.6785702-.0769487,1.0263797-.1099181.013999,0,.0269915-.0020129.04096-.0029889.3278022-.0309869.6606063-.056972.9953928-.0809441.0459619-.0029889.0919542-.0050018.1379161-.0069842.3228004-.013999.6485897-.0179944.976392-.027998.0559655-.0020129.1109245-.0039954.1658836-.0079907.3297847-.0129925.6606063-.0249786.9933799-.0329693.0419665-.0010065.082957-.0010065.1249235-.0020129.349792-.0079907.7015663-.0119861,1.0513583-.0119861,6.7638644,0,13.5546899,1.226239,13.5546899,3.7267223l2.7533193-2.7703071c-.9004497-1.366168-2.7113528-2.7063509-6.1402533-3.5218307-2.7413332-.6725924-6.3531052-1.0353769-10.1687623-1.0353769-3.8436552,0-7.4544512.361778-10.1737641,1.0353769-2.9371972.7175478-4.7121115,1.7948911-5.7215033,2.9611998l2.5684349,2.5684349c.6156509-1.0064334,2.4365271-1.7460014,4.8620441-2.2207169Z" fill="#242424"/>
      <path d="M325.6851806,387.891592l2.7533193-2.7763154c-.9324431-.6206222-1.9188387-.8454907-2.7533193-.8454907h-30.8001439l-3.5988099,3.6227821c13.7985591-.000976,26.6446984-.000976,34.3989538-.000976Z" fill="#191919"/>
      <path d="M291.2852508,353.4866603h0c.0010065,0,.0010065,15.432538.0010065,34.4039252l3.5988099-3.6227821h0v-30.7811431c0-.8514685-.221849-1.8338687-.8454907-2.7713136l-2.7543257,2.7713136h0Z" fill="#1c1c1c"/>
      <path d="M264.1758406,353.4856539c0-.0659691.0079907-.1419114.0199768-.2158713.0089972-.0489812.0209832-.0959496.0329693-.1419114.0050018-.013999.0100036-.0219897.0169879-.04096.0150055-.0619738.027998-.1219346.0449859-.1829019.0029889-.0050018.0060083-.0109796.0089972-.0169879.0299804-.0649627.0659691-.1239171.1059227-.1649076l-2.5684349-2.5684349c-.9684013,1.1203163-1.2602148,2.2915963-1.2602148,3.3309685v30.783156l3.5997859,3.6227821c-.000976-13.8215248-.000976-26.6676641-.000976-34.4049316Z" fill="#292929"/>
      <path d="M325.6841742,414.9880097h-34.3979474l3.5978035,3.6177803h32.2952308l.3397883-.3447901c.3078255-.1279124.6166269-.3028236.9244218-.4976812l-2.759297-2.775309h0Z" fill="#171717"/>
      <path d="M291.2862268,449.3909284l2.7523128,2.7682942c.6236111-.9444291.8454907-1.9188387.8454907-2.7682942v-30.7851384l-3.5978035-3.6177803v34.4029187Z" fill="#0f0f0f"/>
      <path d="M331.989335,391.2535169c-.8444842-3.3999266-2.1796653-5.2098232-3.5508352-6.1392468l-2.7533193,2.7763154c4.9639715,0,4.9639715,27.0964177,0,27.0964177l2.7583211,2.775309c1.3681504-.9294237,2.7033315-2.7453285,3.5458333-6.1432422.6635952-2.7443221,1.0313815-6.3531052,1.0313815-10.1857502-.0000305-3.8266673-.3677863-7.4364568-1.0313815-10.1798029Z" fill="#0f0f0f"/>
      <path d="M291.2652436,449.624794c-.4067639,2.327585-6.9707385,3.4888614-13.5337066,3.4888614s-13.1259668-1.1612764-13.5337066-3.4888614c-.013999-.0819506-.0209832-.1649076-.0209832-.2338656l-2.7832997,2.7693007c.9284172,1.366168,2.7413332,2.7003427,6.1642254,3.5198483,2.7193435.6715859,6.329133,1.0403482,10.1737641,1.0403482,3.8156572,0,7.4274596-.3687623,10.1687623-1.0403482,3.4278941-.8195056,5.2398036-2.1556932,6.1392468-3.5218307l-2.7523128-2.7682942c-.0010065.069934-.0079907.152891-.0219897.2348416Z" fill="#171717"/>
      <path d="M264.1758406,449.3909284h0v-34.4029492l-3.5997859,3.6177803v31.6306291l.0929302.235848c.1279124.54468.3447901,1.1183034.7235561,1.687962l2.7832997-2.7692702h0Z" fill="#1c1c1c"/>
      <path d="M229.776902,414.9880097l-2.781302,2.7722896c.9604106.6196158,1.9188234.8454907,2.781302.8454907h30.7991527l3.5997859-3.6177803h-34.3989386Z" fill="#1a1a1a"/>
    </g>
    <g display="none">
      <path d="M264.1758406,387.891592l-3.5997859-3.6227821,3.5997859,3.6227821Z" fill="#242424"/>
      <polygon points="291.2862268 387.891592 294.8850367 384.2688099 294.8840303 384.2688099 294.8840303 384.2688099 291.2862268 387.891592" fill="#1c1c1c"/>
      <g id="Up">
        <g>
          <path d="M264.6755347,387.6847179v-34.1980575c0-.042973.0069842-.0929302.013999-.1419114l.0599608-.2268509c.028974-.04096.0659691-.1069292.0819506-.1329142.4946923-.8084955,2.1037231-1.5160701,4.532229-1.9907856.3048061-.0679516.5936307-.12593.8884636-.1818955.3507984-.0629497.6575869-.111931.9574217-.1349272.0349822-.0029889.1289189-.0159814.1628947-.0259851.2548489-.028974.5776493-.0719469.9054515-.1109245.3347865-.0399841.6735988-.0759423,1.0173825-.1089421.363791-.0339758.6925692-.0599608,1.0223843-.082957l2.3675386-.0769487c.3527808-.0079907.7005599-.0119861,1.0463565-.0119861,7.3205305,0,13.0549958,1.4171317,13.0549958,3.2270283.0010065.1718918.0010065,15.9182636.0010065,34.1980575l-13.0560023,13.0440162-13.0560328-13.0440162Z" fill="#ebebeb"/>
          <path d="M277.7305305,350.7593262c8.0840401,0,12.5553017,1.6120197,12.5553017,2.7273342,0,.0150055,0,.028974.0010065.0439794v33.947204l-12.5563082,12.5453286-12.5553017-12.5453286v-33.9871881c0-.0209832.0039954-.042973.0039954-.042973h0c0-.0029889.0010065-.0069842.0020129-.0109796l.0010065-.0029889c.0129925-.0349822.028974-.0939366.0389776-.1339207.0119861-.0179944.0239721-.0359887.0359887-.054959.1529215-.249847.9054515-1.1133321,4.1834435-1.7579265.0199768-.0029889.04096-.0069842.0609673-.0119861.2718368-.0619738.5546531-.1189152.8324981-.1708854l.0809441-.013999c.3328041-.0609673.5986325-.097932.794527-.1139439.0479748-.0010065.1129374-.0060083.1878733-.0199768.3088014-.0419665.6116251-.0819506.9184441-.1189152.0079907-.0010065.0159814-.0020129.0239721-.0029889.3278022-.0399841.6625887-.0749663,1.0014011-.1069292h0c.0159814-.0010065.0309869-.0020129.0389776-.0029889.3198115-.0299804.6445944-.0559655.9654124-.0779552l.1169328-.0060083c.1898862-.0079907.3817548-.0129925.5736539-.0169879l.3947473-.0100036c.0679516-.0020129.1349272-.0050018.1689029-.0079907.3248134-.0119861.6506027-.0239721.9784049-.0319934l.1239171-.0020129c.3417402-.0080212.6855239-.0120166,1.0283011-.0120166M277.7305305,349.759938c-.349792,0-.7015663.0039954-1.0513583.0119861-.04096,0-.082957.0010065-.1249235.0020129-.3328041.0079907-.6635952.0199768-.9933799.0329693-.054959.0039954-.1099181.0060083-.1658836.0079907-.3267958.0100036-.6535916.013999-.976392.027998-.0459619.0020129-.0919542.0039954-.1379161.0069842-.3347865.0229962-.6675906.0499572-.9953928.0809441-.013999.0010065-.0269915.0029889-.04096.0029889-.347779.0329693-.6905867.0699645-1.0263797.1099181h-.0020129c-.3307911.0399841-.6556045.082957-.9884086.1279124-.0129925.0039954-.0339758.0060083-.0589544.0069842-.3167921.0239721-.642612.0759423-.9374144.1299253-.0249786.0039954-.0489812.0079907-.0739598.0119861-.3008107.056972-.5956436.1159263-.8794665.180889-.0039954,0-.0079907.0010065-.0129925.0020129-2.425517.4747155-4.2473997,1.214253-4.8620136,2.2206254-.04096.04096-.0759423.0999449-.1059227.1649076-.0029889.0060083-.0060083.0109796-.0089972.0169879-.0169879.0609673-.0299804.1209282-.0449859.1829019-.0069842.0190008-.0119861.0269915-.0169879.04096-.0119861.0449859-.0239721.0929302-.0329693.1419114-.0109796.0749663-.0199768.1499021-.0199768.2158713v34.4049316l13.5546899,13.5437103,13.5556963-13.5437103v-34.4039252h-.0010065v-.0010065c.0029889-2.5014288-6.7888735-3.7276678-13.5517315-3.7276678h0Z" fill="#edf4f4"/>
        </g>
        <path d="M269.266718,350.5024644c.0039954,0,.0079907-.0010065.0129925-.0020129.2838228-.0639562.5786557-.1239171.8794665-.180889.0249786-.0039954.0489812-.0079907.0739598-.0119861.2948329-.0539526.6196158-.1049467.9374144-.1299253.0249786-.0010065.0459619-.0029889.0589544-.0069842.3328041-.0449859.6575869-.0879588.9884086-.1279124h.0020129c.335793-.04096.6785702-.0769487,1.0263797-.1099181.013999,0,.0269915-.0020129.04096-.0029889.3278022-.0309869.6606063-.056972.9953928-.0809441.0459619-.0029889.0919542-.0050018.1379161-.0069842.3228004-.013999.6485897-.0179944.976392-.027998.0559655-.0020129.1109245-.0039954.1658836-.0079907.3297847-.0129925.6606063-.0249786.9933799-.0329693.0419665-.0010065.082957-.0010065.1249235-.0020129.349792-.0079907.7015663-.0119861,1.0513583-.0119861,6.7638644,0,13.5546899,1.226239,13.5546899,3.7267223l2.7533193-2.7703071c-.9004497-1.366168-2.7113528-2.7063509-6.1402533-3.5218307-2.7413332-.6725924-6.3531052-1.0353769-10.1687623-1.0353769-3.8436552,0-7.4544512.361778-10.1737641,1.0353769-2.9371972.7175478-4.7121115,1.7948911-5.7215033,2.9611998l2.5684349,2.5684349c.6156509-1.0064334,2.4365271-1.7460014,4.8620441-2.2207169Z" fill="#dbdbdb"/>
        <path d="M291.2852508,353.4866603h0c.0010065,0,.0010065,15.432538.0010065,34.4039252l3.5978035-3.6227821v-30.7811431c0-.8514685-.221849-1.8338687-.8454907-2.7713136l-2.7533193,2.7713136h0Z" fill="#e3e3e3"/>
        <path d="M264.1758406,353.4856539c0-.0659691.0079907-.1419114.0199768-.2158713.0089972-.0489812.0209832-.0959496.0329693-.1419114.0050018-.013999.0100036-.0219897.0169879-.04096.0150055-.0619738.027998-.1219346.0449859-.1829019.0029889-.0050018.0060083-.0109796.0089972-.0169879.0299804-.0649627.0659691-.1239171.1059227-.1649076l-2.5684349-2.5684349c-.9684013,1.1203163-1.2602148,2.2915963-1.2602148,3.3309685v30.783156l3.5997859,3.6227821c-.000976-13.8215248-.000976-26.6676641-.000976-34.4049316Z" fill="#d6d6d6"/>
      </g>
      <polygon points="294.9115932 418.6131979 291.3142523 414.9954494 291.3142523 414.9954494 294.9115932 418.6131979" fill="#0f0f0f"/>
      <g id="Right">
        <g>
          <path d="M291.4931009,414.4883156l-13.0549958-13.0540198,13.0549958-13.0440162h34.1910733c1.8078837,0,3.2240394,5.7314764,3.2240394,13.049018s-1.4161252,13.049018-3.2240394,13.049018h-34.1910733Z" fill="#ebebeb"/>
          <path d="M325.6851806,388.8909801c1.1373042,0,2.7243453,4.7740853,2.7243453,12.5483175,0,7.7752387-1.5870411,12.5493239-2.7243453,12.5493239h-33.9841992l-12.5553017-12.5533193,12.5553017-12.5443221h33.9841992M325.6851806,387.891592h-34.3979474l-13.5556963,13.5437103,13.5556963,13.5537139h34.3979474c4.9639715-.0010065,4.9639715-27.0974242,0-27.0974242h0Z" fill="#edf4f4"/>
        </g>
        <path d="M325.6851806,387.891592l2.7533193-2.7763154c-.9324431-.6206222-1.9188387-.8454907-2.7533193-.8454907h-30.8001439l-3.5988099,3.6227821c13.7985591-.000976,26.6446984-.000976,34.3989538-.000976Z" fill="#e6e6e6"/>
        <path d="M325.6841742,414.9880097h-34.3979474l3.5978035,3.6177803h32.2952308l.3397883-.3447901c.3078255-.1279124.6166269-.3028236.9244218-.4976812l-2.759297-2.775309h0Z" fill="#e8e8e8"/>
        <path d="M328.4384999,385.1143006l-2.7533193,2.7763154c4.9639715,0,4.9639715,27.0964177,0,27.0964177l2.7583211,2.775309c1.3681504-.9294237,2.7033315-2.7453285,3.5458333-6.1432422.6635952-2.7443221,1.0313815-6.3531052,1.0313815-10.1857502,0-3.8286497-.3677863-7.4374328-1.0313815-10.1817548-.8444842-3.3989811-2.1796653-5.2078712-3.5508352-6.1372949Z" fill="#f0f0f0"/>
      </g>
      <g id="Down">
        <g>
          <path d="M277.7305305,452.6139613c-7.1276249,0-12.7342083-1.3221886-13.0410273-3.0761197-.0079907-.0489812-.013999-.1029338-.013999-.1479197v-34.1960751l13.0549958-13.0540198,13.0560023,13.0540198v34.1960751c0,.0449859-.0060083.0989385-.0150055.1519151-.3047451,1.7499357-5.912335,3.0721243-13.0409663,3.0721243Z" fill="#ebebeb"/>
          <path d="M277.7305305,402.8474321l12.5563082,12.5543258v33.9881946c0,.0209832-.0039954.0459619-.0060083.0629497-.194888,1.116321-4.6651432,2.6623715-12.5503304,2.6623715-7.8841807,0-12.3534295-1.5460506-12.5483175-2.6543808-.0039954-.0269915-.0079907-.0539526-.0079907-.0699645v-33.989201l12.5563387-12.5542953M277.7305305,401.4342958l-13.5546899,13.5537139v34.4029492h0c0,.0699645.0069842.1519151.0209832.2338656.4077399,2.327585,6.9707385,3.4888614,13.5337066,3.4888614,6.5639746,0,13.1269732-1.1612764,13.5337066-3.4888614.013999-.0819506.0209832-.1649076.0209832-.2338656v-34.4029492l-13.5546899-13.5537139h0Z" fill="#edf4f4"/>
        </g>
        <path d="M291.2862268,449.3909284l2.7523128,2.7682942c.6236111-.9444291.8454907-1.9188387.8454907-2.7682942v-30.7851384l-3.5978035-3.6177803v34.4029187Z" fill="#f0f0f0"/>
        <path d="M291.2652436,449.624794c-.4067639,2.327585-6.9707385,3.4888614-13.5337066,3.4888614s-13.1259668-1.1612764-13.5337066-3.4888614c-.013999-.0819506-.0209832-.1649076-.0209832-.2338656l-2.7832997,2.7693007c.9284172,1.366168,2.7413332,2.7003427,6.1642254,3.5198483,2.7193435.6715859,6.329133,1.0403482,10.1737641,1.0403482,3.8156572,0,7.4274596-.3687623,10.1687623-1.0403482,3.4278941-.8195056,5.2398036-2.1556932,6.1392468-3.5218307l-2.7523128-2.7682942c-.0010065.069934-.0079907.152891-.0219897.2348416Z" fill="#e8e8e8"/>
        <path d="M264.1758406,449.3909284h0v-34.4029492l-3.5997859,3.6177803v31.6306291l.0929302.235848c.1279124.54468.3447901,1.1183034.7235561,1.687962l2.7832997-2.7692702h0Z" fill="#e3e3e3"/>
      </g>
      <g id="left">
        <g>
          <path d="M229.776902,414.4883156c-1.8188938,0-3.2450074-5.7314764-3.2450074-13.049018s1.4251224-13.049018,3.2450074-13.049018h34.1920645l13.0549958,13.0440162-13.0549958,13.0540198h-34.1920645Z" fill="#ebebeb"/>
          <path d="M263.7620924,388.8909801l12.5553017,12.5443221-12.5553017,12.5533193h-33.9851904c-1.1452949,0-2.7443221-4.7730788-2.7443221-12.5483175s1.5990272-12.5503304,2.7453133-12.5503304h33.9841992M264.1758406,387.891592h-34.3989538c-4.991939,0-4.991939,27.0964177,0,27.0964177h34.3989233l13.5546899-13.5537139-13.5546594-13.5427038h0Z" fill="#edf4f4"/>
        </g>
        <path d="M264.1758406,387.891592l-3.5997859-3.6227821h-30.7981462c-.8624786,0-1.8208914.2258749-2.7822932.8454907l2.7822932,2.7763154c-.0010065.000976,15.4445394.000976,34.3979321.000976Z" fill="#dbdbdb"/>
        <path d="M229.776902,387.891592h0l-2.781302-2.7763154c-1.366168.9294237-2.6773617,2.7383138-3.5228372,6.1392468-.6635952,2.7443221-1.0313663,6.3541116-1.0313663,10.1817548,0,3.832645.3677711,7.4424346,1.0313663,10.1867567.8444842,3.3999266,2.1566844,5.2088167,3.5228372,6.1392468l2.781302-2.7722896c-4.9929454-.0019824-4.9929454-27.0984002,0-27.0984002Z" fill="#d6d6d6"/>
        <path d="M229.776902,414.9880097l-2.781302,2.7722896c.9604106.6196158,1.9188234.8454907,2.781302.8454907h30.7981462l3.6007924-3.6177803h-34.3989386Z" fill="#e5e5e5"/>
      </g>
    </g>
  </g>
  <g id="Menu_Key">
    <path d="M448.8697748,280.3874005c0,10.3906419-8.4148617,18.8054731-18.7775056,18.8054731-10.3916483,0-18.807486-8.4148617-18.807486-18.8054731,0-10.3646568,8.4158377-18.793487,18.807486-18.793487,10.3626439.0010065,18.7775056,8.4288302,18.7775056,18.793487Z" fill="#1a1615"/>
    <g>
      <path d="M446.1844071,280.3874005c0,8.8965614-7.2245809,16.0931443-16.0921379,16.0931443-8.8965614,0-16.0931443-7.1965829-16.0931443-16.0931443,0-8.8905532,7.1965829-16.0931443,16.0931443-16.0931443,8.867557.0010065,16.0921379,7.2035977,16.0921379,16.0931443Z" fill="#0a0a0a" stroke="#000" stroke-miterlimit="9.9938816" stroke-width=".9993882"/>
      <g>
        <rect x="422.9016641" y="275.7652302" width="14.3522058" height="1.5510524" fill="#5a0000"/>
        <rect x="422.9016641" y="279.6818388" width="14.3522058" height="1.5510524" fill="#5a0000"/>
        <rect x="422.9016641" y="283.4884987" width="14.3522058" height="1.5320516" fill="#5a0000"/>
      </g>
    </g>
    <g id="Menu_Pressed" display="none">
      <path d="M446.1844071,280.3874005c0,8.8965614-7.2245809,16.0931443-16.0921379,16.0931443-8.8965614,0-16.0931443-7.1965829-16.0931443-16.0931443,0-8.8905532,7.1965829-16.0931443,16.0931443-16.0931443,8.867557.0010065,16.0921379,7.2035977,16.0921379,16.0931443Z" fill="#f5f5f5" stroke="#fff" stroke-miterlimit="9.9938816" stroke-width=".9993882"/>
      <g>
        <rect x="422.9016641" y="275.7652302" width="14.3522058" height="1.5510524" fill="#929493"/>
        <rect x="422.9016641" y="279.6818388" width="14.3522058" height="1.5510524" fill="#929493"/>
        <rect x="422.9016641" y="283.4884987" width="14.3522058" height="1.5320516" fill="#929493"/>
      </g>
    </g>
  </g>
  <g id="Switcher_Key">
    <path d="M340.9578434,280.3874005c0,10.3906419-8.4158377,18.8054731-18.807486,18.8054731-10.3616679,0-18.7775056-8.4148617-18.7775056-18.8054731,0-10.3646568,8.4148617-18.793487,18.7775056-18.793487,10.3916178.0010065,18.807486,8.4288302,18.807486,18.793487Z" fill="#1a1615"/>
    <g>
      <path d="M338.2435017,280.3874005c0,8.8965614-7.1965829,16.0931443-16.0931443,16.0931443-8.866581,0-16.0931443-7.1965829-16.0931443-16.0931443,0-8.8905532,7.2265633-16.0931443,16.0931443-16.0931443,8.8965309.0010065,16.0931443,7.2035977,16.0931443,16.0931443Z" fill="#0a0a0a" stroke="#000" stroke-miterlimit="9.9938816" stroke-width=".9993882"/>
      <g>
        <polygon points="319.6358751 280.2874555 316.6067542 280.2874555 316.6067542 276.5047677 322.0753911 276.5047677 322.0753911 277.8249738 323.8742776 277.8249738 323.8742776 274.767855 314.9887262 274.767855 314.9887262 282.1523112 319.6358751 282.1523112 319.6358751 280.2874555" fill="#5a0000"/>
        <path d="M320.3864227,278.4495914v7.5793747h8.9545094v-7.5793747h-8.9545094ZM327.5420455,284.2290427h-5.4666544v-3.9425936h5.4666544v3.9425936Z" fill="#5a0000"/>
      </g>
    </g>
  </g>
  <g id="Left_Stick">
    <path d="M185.5839564,351.4678767c-37.3051641,0-67.6535811-30.3464117-67.6535811-67.6465739s30.3474258-67.6445915,67.6535811-67.6445915c37.3131548,0,67.6655748,30.3444292,67.6655748,67.6445915s-30.3514287,67.6465739-67.6655748,67.6465739Z" fill="#080808" stroke="#140c0c" stroke-miterlimit="9.9938816" stroke-width="1.9987763"/>
    <path d="M241.6526271,279.8866999c0,30.9580367-25.0906419,56.0496699-56.0686707,56.0496699-30.9620473,0-56.0576758-25.0916331-56.0576758-56.0496699,0-30.9810329,25.0956285-56.0716748,56.0576758-56.0716748,30.9780288.0000152,56.0686707,25.0906572,56.0686707,56.0716748Z" stroke="#120b0b" stroke-miterlimit="9.9938816" stroke-width="1.9987763"/>
  </g>
  <g id="Right_Stick">
    <path d="M472.9819965,465.3691528c-37.3011687,0-67.6465739-30.3454357-67.6465739-67.6445915,0-37.3031512,30.3444292-67.6635618,67.6465739-67.6635618,37.2991558,0,67.6656053,30.3594042,67.6656053,67.6635923,0,37.3001318-30.366419,67.644561-67.6656053,67.644561Z" fill="#080808" stroke="#140c0c" stroke-miterlimit="9.9938816" stroke-width="1.9987763"/>
    <path d="M529.0566755,393.7669927c0,30.9800264-25.0906267,56.0706836-56.074679,56.0706836-30.9560543,0-56.0486939-25.0906267-56.0486939-56.0706836,0-30.9600497,25.0926396-56.0506763,56.0486939-56.0506763,30.9840218,0,56.074679,25.0906267,56.074679,56.0506763Z" stroke="#120b0b" stroke-miterlimit="9.9938816" stroke-width="1.9987763"/>
  </g>
  <g id="Button_Base">
    <g id="A">
      <path d="M566.6426735,355.2455628c-13.8804792,0-25.1725772-11.2970693-25.1725772-25.1835873,0-13.8834986,11.292098-25.1785855,25.1725772-25.1785855,13.8895069,0,25.1895956,11.2950869,25.1895956,25.1785855,0,13.8855115-11.3000887,25.1835873-25.1895956,25.1835873Z" fill="#0a0a0a"/>
      <path d="M566.6426735,306.3825027c13.0919605,0,23.6905134,10.5985224,23.6905134,23.6795033,0,13.0849762-10.5984919,23.6845051-23.6905134,23.6845051-13.0739661,0-23.673495-10.5985224-23.673495-23.6845051-.001037-13.0810114,10.5994679-23.6795033,23.673495-23.6795033M566.6426735,303.3843382c-14.7069996,0-26.6716595,11.9676793-26.6716595,26.6776677,0,14.7130078,11.9656969,26.6826696,26.6716595,26.6826696,14.7159662,0,26.6886778-11.9696617,26.6886778-26.6826696,0-14.7100189-11.9727116-26.6776677-26.6886778-26.6776677h0Z" fill="#1a1615"/>
    </g>
    <g id="Y">
      <path d="M566.6426735,254.2334142c-13.8804792,0-25.1725772-11.30108-25.1725772-25.191578,0-13.8795032,11.292098-25.171586,25.1725772-25.171586,13.8895069,0,25.1895956,11.2920828,25.1895956,25.171586,0,13.8915046-11.3000887,25.191578-25.1895956,25.191578Z" fill="#0a0a0a"/>
      <path d="M566.6426735,205.3703236c13.0919605,0,23.6905134,10.5985071,23.6905134,23.6725038,0,13.0929822-10.5984919,23.6924958-23.6905134,23.6924958-13.0739661,0-23.673495-10.5995136-23.673495-23.6924958-.001037-13.0739814,10.5994679-23.6725038,23.673495-23.6725038M566.6426735,202.3721591c-14.7069996,0-26.6716595,11.9646752-26.6716595,26.6706682,0,14.7169879,11.9656969,26.6906603,26.6716595,26.6906603,14.7159662,0,26.6886778-11.9736723,26.6886778-26.6906603,0-14.7069843-11.9727116-26.6706682-26.6886778-26.6706682h0Z" fill="#1a1615"/>
    </g>
    <g id="B">
      <path d="M617.1517291,304.7384896c-13.8815162,0-25.1745901-11.3000887-25.1745901-25.1885891,0-13.8815162,11.293074-25.1735837,25.1745901-25.1735837,13.8884699,0,25.1875827,11.293074,25.1875827,25.1735837,0,13.8895069-11.2990518,25.1885891-25.1875827,25.1885891Z" fill="#0a0a0a"/>
      <path d="M617.1517291,255.8754143c13.0889716,0,23.6885004,10.5985071,23.6885004,23.6745167,0,13.0909845-10.5995289,23.6895069-23.6885004,23.6895069-13.077016,0-23.6755079-10.5985224-23.6755079-23.6895069-.000976-13.0760095,10.5985529-23.6745167,23.6755079-23.6745167M617.1517291,252.8772498c-14.7079755,0-26.6736724,11.9656816-26.6736724,26.6726812,0,14.7159967,11.9656969,26.6876714,26.6736724,26.6876714,14.7149903,0,26.6866649-11.9716747,26.6866649-26.6876714,0-14.7069996-11.9716747-26.6726812-26.6866649-26.6726812h0Z" fill="#1a1615"/>
    </g>
    <g id="X">
      <path d="M516.1305681,304.7384896c-13.8774903,0-25.1676059-11.3000887-25.1676059-25.1885891,0-13.8815162,11.2900851-25.1735837,25.1676059-25.1735837,13.8924958,0,25.1955734,11.293074,25.1955734,25.1735837,0,13.8895069-11.3030776,25.1885891-25.1955734,25.1885891Z" fill="#0a0a0a"/>
      <path d="M516.1305681,255.8754143c13.0969623,0,23.6964912,10.5985071,23.6964912,23.6745167,0,13.0909845-10.5984919,23.6895069-23.6964912,23.6895069-13.0679883,0-23.6685237-10.5985224-23.6685237-23.6895069.0000305-13.0760095,10.6005353-23.6745167,23.6685237-23.6745167M516.1305681,252.8772498c-14.7040107,0-26.6666881,11.9656816-26.6666881,26.6726812,0,14.7159967,11.9626775,26.6876714,26.6666881,26.6876714,14.7199921,0,26.6946556-11.9716747,26.6946556-26.6876714,0-14.7069996-11.9756395-26.6726812-26.6946556-26.6726812h0Z" fill="#1a1615"/>
    </g>
  </g>
  <g>
    <g>
      <path d="M375.6146045,156.5961831s-88.8625891-1.0663485-100.4864847-2.9711882l-16.3739783,30.51931c20.2256241,23.2567579,41.5575656,53.279378,56.4064766,53.279378h120.9119682c14.86291,0,36.1748441-30.02262,56.4284663-53.279378l-16.3729718-30.51931c-11.6228892,1.9038485-100.5134762,2.9711882-100.5134762,2.9711882Z" fill="#1a1a1a"/>
      <path d="M476.1290872,153.6250101l-3.6357746-6.7738528c-1.854852.479702-3.6507801.7475434-5.3807085.7475434h-184.2172363c-1.3911466,0-2.816269-.1888797-4.279393-.5007005l-3.4878549,6.5270099c11.6238956,1.9038332,100.4864847,2.9711882,100.4864847,2.9711882,0,0,88.8905871-1.067355,100.5144827-2.9711882Z" fill="#0d0d0d"/>
    </g>
    <g id="RB">
      <path d="M642.3862801,192.0324962c-8.9744861-7.9331467-5.632538-16.1501163-11.4619769-23.8294054.2398434.3258046.4857256.6515939.697571.9784049-.027998-.0129925-96.4679183-42.0332647-120.7260773-34.4569018-15.5594745,4.8660242-27.2253366,15.3216135-32.8109063,18.2128488l15.8662935,29.5649077c11.1621727-12.6702368,21.9285611-22.9909295,31.0379744-24.7458518,20.0077704-3.8456528,83.8626594,16.2880324,117.4071254,34.2840187-.0029889-.0010217-.0070147-.0050171-.0100036-.0080212Z" fill="#1a1a1a"/>
      <path d="M510.8957968,134.7255852c24.258159-7.5773617,120.6980793,34.4439092,120.7260773,34.4569018-.2118454-.3278022-.4577276-.6536068-.697571-.9784049-.028974-.0389776-.0619738-.0779552-.0909477-.1169328-.1009514-.1359184-.1818955-.2418563-.2918135-.3747706-.0439794-.054959-.0899718-.1089268-.1349272-.160897-.08497-.0929454-.1698789-.2118759-.2738192-.3317976-.054959-.0509637-.1079051-.0969408-.1549344-.1588993-.082957-.1099333-.1809195-.2198666-.2818099-.3008107-.0639867-.0669603-.112907-.1359184-.165914-.2038699-.0999144-.1039403-.2008658-.1798825-.2888246-.2858205-.056972-.0699645-.1279124-.1409202-.1998898-.1988834-.1039403-.0829418-.1898862-.1848844-.2858357-.286827-.0769792-.068958-.1549344-.1169328-.2298398-.1878885-.082957-.0999449-.1908622-.1988834-.3038301-.2788362-.0759423-.062965-.1419419-.1369096-.222886-.2098782-.112907-.0969408-.2168472-.1678965-.3157857-.2628396-.0889348-.0749511-.1789066-.1479044-.2668654-.2188602-.0939366-.0709557-.2138583-.1669053-.3328041-.2628396-.0739293-.0739598-.1648771-.1329142-.2638155-.194888-.1239476-.0959343-.2268509-.1898862-.3537873-.2798275-.0969255-.0499725-.1768937-.1249235-.2718063-.1988834-.1338902-.0959343-.2598507-.180889-.3807483-.2578378-.1059532-.0739598-.2058676-.1469132-.2888246-.2198666-.1429179-.0819506-.2898006-.1648923-.4097223-.2618331-.1069292-.0709557-.2108694-.1419114-.2977913-.1918839-.1538975-.091939-.3157857-.1928751-.4507128-.29282-.1079051-.054959-.2088565-.1039403-.2948024-.1709006-.1818955-.1109245-.3507984-.2198666-.5316569-.3028084-.0949126-.0559655-.16689-.111931-.2558248-.1669053-.2768081-.1509086-.556666-.3018172-.8324981-.4667095-18.2698208-9.9079357-71.9349642-36.9743653-114.1501167-31.3558035-7.6043533,1.00439-21.6207661,12.3344439-33.7993148,16.2710445l3.5808156,6.6669236c5.5864846-2.893233,17.2523468-13.3488375,32.8128277-18.2148465Z" fill="#0d0d0d"/>
    </g>
    <g id="LB">
      <path d="M241.7065949,130.0004659c-42.222152-5.6185619-95.8802959,21.4478678-114.1501167,31.3558035-.2738344.1639011-.5566584.312812-.8274963.4637206-.0829494.0539678-.1569016.1099333-.249847.1639011-.1828867.0829418-.3507832.1918839-.532671.3028084-.0839482.0649627-.1838855.1169328-.2898235.1678965-.1419114.1009361-.2968154.2018723-.4517269.2968154-.0839482.0459771-.1828867.1129374-.2878258.1818955-.1309166.0989385-.2728356.1878885-.4187424.2678414-.0819506.0679516-.1698942.1369096-.2688326.2058676-.1339207.0869524-.2588442.1709006-.3967603.2698391-.0909477.0679516-.1629023.1369096-.2508459.1898862-.1369172.0869524-.2568465.1878885-.3767682.2898159-.0879436.0609673-.1728907.105938-.243854.1718918-.1189305.1029338-.249847.2068741-.361778.286827-.0669603.0589696-.1469132.1249235-.2258596.1908774-.1159263.1049315-.223862.1838932-.3477867.2878182-.0719545.0639562-.1339207.1269212-.1928827.1898862-.117924.0809441-.239851.1888797-.3407948.298813-.0559655.0609673-.1209282.1089268-.1858832.1539127-.1199293.111931-.213866.2258596-.3257969.3247981-.0569643.0419817-.1139287.0979472-.1668976.1549039-.0949431.1189305-.2088718.2208578-.3228004.3278022-.0449706.0519701-.0869448.1039403-.1249235.1559104-.1129298.1069292-.2268585.2218643-.3247981.3477943-.0309793.0449706-.0679592.0879436-.1069368.1209282-.117924.1209282-.2248608.2548489-.3148097.3697687-.0319781.0289892-.0639638.0659539-.0949431.1039403-.117924.1439091-.2188678.2658437-.3148097.4027533-.0219897.0289892-.0449706.0579632-.0679592.0869524-.1189305.1379161-.2158713.2848293-.3208027.4417309-.0119937.0159967-.0229886.0299804-.0359811.0419817-.1239247.1518998-.2268585.3278022-.3327964.4727178.0249862-.0099884,97.6282416-41.935325,121.9093663-34.3579633,15.5304853,4.8660242,27.2063358,15.3216135,32.7819323,18.2128488l3.4209098-6.3381149c-12.4034172-3.5918257-27.0144519-15.5685022-34.8576574-16.6048702Z" fill="#0d0d0d"/>
      <g>
        <path d="M273.6320569,153.1952653c.1559104.062965.3058125.1229258.4637054.186882-.1578928-.0639562-.306819-.1259147-.4637054-.186882Z" fill="#1a1a1a"/>
        <path d="M273.1593239,152.9464247c-5.5755965-2.8802405-17.2514318-13.3498287-32.7949249-18.2198483-24.1931963-7.549379-121.2327785,34.0711363-121.9023668,34.3549744-4.9679592,7.4304485-2.2096458,15.3216135-10.8343628,22.9519519-.0159891.0129925-.0419741.0229809-.0599608.0339758,33.1387085-17.8640633,99.1043353-38.0866833,118.6763373-34.3099885,9.1174193,1.7549223,19.8928201,12.0756149,31.0609705,24.7458518l15.8413149-29.5648924c.0040259.0029736.0080212.0059778.0129925.0079755Z" fill="#1a1a1a"/>
        <path d="M273.1593239,152.9464247c.1718918.0879436.3127968.1728983.4727025.2488406-.1608817-.0769487-.3007802-.160897-.4727025-.2488406Z"/>
      </g>
      <path d="M258.030616,183.308833c.2338656.2958241.4657183.5646567.7245625.8344958l16.3739783-30.51931,3.4878549-6.5270099c-.3437837-.0659539-.6875673-.1309166-1.0373593-.2258596-.3347865-.091939-.6725924-.1898862-1.0123807-.2708303l-3.4209098,6.3381149-15.8413149,29.5648924c.2348416.2678414.4667248.5346763.725569.8055066h0"/>
    </g>
    <path d="M478.0838841,152.938434l-3.5808156-6.6669236c-.3328041.0929454-.6655776.2068741-.9953928.3108144-.3387819.0889501-.6775942.1758872-1.0143936.2698391l3.6357746,6.7738528,16.3729718,30.51931c.2318527-.2698391.4917034-.5386717.7225496-.835487.2318527-.2698391.4936858-.536674.725569-.8045001l-15.866263-29.5669054Z"/>
    <path d="M356.9570511,169.383368l-.0030194.0019977.0030194-.0019977Z" fill="#1a1a1a"/>
  </g>
  <g>
    <g>
      <image width="102" height="102" transform="translate(324.266449 145.5150485)" xlink:href="base-1.png" isolation="isolate" opacity=".75"/>
      <path d="M407.5590673,196.4847723c0,17.9819874-14.5710659,32.5570639-32.554075,32.5570639-17.983985,0-32.554075-14.5750765-32.554075-32.5570639,0-17.971999,14.57009-32.5550662,32.554075-32.5550662,17.9829786,0,32.554075,14.5830672,32.554075,32.5550662Z" fill="#fff"/>
    </g>
    <path d="M384.0004922,182.0905847s8.9265419-9.438222,13.760588-8.8705764c-.0010065-.0019977-.0039954-.0039954-.0060083-.005993-.7205672-.7015663-1.4741036-1.3681657-2.2606094-2.0167707-.0069842-.0019977-.0159814-.0069995-.0229962-.0119861-.3847742-.3218092-.7785151-.6206222-1.1802772-.9084404-.0249786-.0189856-.0499572-.0359735-.0619738-.0539678-.3857502-.2778298-.7695179-.5486601-1.1722865-.8344958-.0010065-.0010065-.0029889-.0019977-.0039954-.0030041-.3787659-.0599608-.7755262-.1249235-1.1872614-.1658988-5.2467878-.493701-16.8586669,4.5082416-16.8586669,4.5082416,0,0-11.6128855-5.0019426-16.8586669-4.5082416-.4127417.0409753-.809502.1049315-1.1882679.1658988,0,.0010065-.0010065.0010065-.0029889.0019977-.4067639.2898159-.794527.5626591-1.1782642.8424865-.013999.0159967-.0339758.0299804-.0559655.0459771-.4037445.2908223-.8005048.591633-1.1882679.9154399-.0050018.0030041-.0109796.0050018-.0159814.0069995-.7895252.648605-1.5450441,1.3171868-2.2676242,2.0217572v.0010065c4.8330397-.5666544,13.7595815,8.8715676,13.7595815,8.8715676,0,0-17.7221519,20.871225-16.9546164,34.0631456,1.0933248,1.4391214,2.313586,2.773296,3.6157978,4.0235377-.4397332-11.9846672,22.335325-30.1155654,22.335325-30.1155654,0,0,22.7750582,18.1289006,22.335325,30.1155654,1.2872063-1.234245,2.4924621-2.5524382,3.5748073-3.9775606.0129925-.013999.027998-.0289892.04096-.0459771.7634791-13.1939183-16.9576663-34.0651433-16.9576663-34.0651433Z" fill="#1a1a1a"/>
  </g>
  <g>
    <g>
      <path d="M548.9734982,5.6555985c-.4017316-.3188046-.8045001-.6176219-1.2102576-.8984501l-2.3455489,109.9277046,53.2404156,7.2295751c-12.0596335-116.7505287-42.9467298-110.9660699-49.6846091-116.2588296Z" fill="#1a1a1a"/>
      <path d="M521.9530533.3348559c-10.8163761.4027534-12.0556076,11.4320015-12.1745534,15.1807059v1.2262495s2.8982501,40.6910898,0,93.0370411c9.9199522,2.287601,38.5113958,5.294755,38.5113958,5.294755,0,0,.0349517-20.9012054.6845784-50.5650439.8015113-37.4780548-1.2102576-59.7514174-1.2102576-59.7514174-6.413066-4.4732589-13.5596917-4.8710154-25.8111633-4.4222901Z" fill="#141414"/>
    </g>
    <g>
      <path d="M201.1024556,5.6555985c.4007556-.3188046.8045001-.6176219,1.2102576-.8984501l2.3205855,109.9277046-53.2154218,7.2295751C163.4774952,5.1638994,194.3505925,10.9483582,201.1024556,5.6555985Z" fill="#1a1a1a"/>
      <path d="M228.111921.3348559c10.8263797.4027534,12.0616159,11.4320015,12.185533,15.1807059v1.2262495s-2.899226,40.6910898,0,93.0370411c-9.9199217,2.287601-38.5154217,5.294755-38.5154217,5.294755,0,0-.0509637-20.9012054-.6795766-50.5650439-.8105084-37.4780548,1.2102576-59.7514174,1.2102576-59.7514174C208.7257792.2838871,215.8704072-.1138694,228.111921.3348559Z" fill="#141414"/>
    </g>
  </g>
</svg>